<svg xmlns="http://www.w3.org/2000/svg" viewBox="0 0 32 32" xmlns:v="https://vecta.io/nano"><linearGradient id="A" gradientUnits="userSpaceOnUse" x1="27.469" y1="27.429" x2="5.697" y2="5.733"><stop offset=".127" stop-color="#422b60"/><stop offset="1" stop-color="#343b70"/></linearGradient><path d="M32,8.5v15c0,4.7-3.8,8.5-8.5,8.5h-15C3.8,32,0,28.2,0,23.5v-15C0,3.8,3.8,0,8.5,0h15C28.2,0,32,3.8,32,8.5z" fill="url(#A)"/><path d="M17.4 20.5c-.3-2-.7-3.4-1.9-4.2.4-1 .7-2.5.5-3.9-.4-2.4-2.4-3-2.4-3l.3.9-.7.4s.9.3 1.2 1.9c.2 1.2-.2 2.5-.4 3.2-.8-.1-1.7-.1-3 .1s-2.3.5-3 1c-.6-.5-1.6-1.5-1.8-2.6-.3-1.6.6-2.2.6-2.2l-1-.1-.5-1S3.6 12.2 4 14.6c.3 1.6 1.6 3 2.6 3.8-.4.9-.5 2.2-.2 3.9.5 3 2.9 4.5 6.6 3.8 3.9-.9 4.9-2.6 4.4-5.6zm-6.9 2.2c-1 .2-1.5-.6-1.7-1.7s0-2 1.1-2.2 1.5.6 1.7 1.7c.1 1.1-.1 2-1.1 2.2zm4.6-.7c-1 .2-1.5-.7-1.7-1.8s0-2 1-2.2c1.1-.2 1.5.7 1.7 1.8s0 2-1 2.2zm1.5-14.8l.6 1.5c3.7-1.4 7.8.4 9.2 4l1.5-.6c-1.8-4.4-6.8-6.6-11.3-4.9zm2.3 5.9l.9 2.2 2.2-.9c-.5-1.2-1.9-1.8-3.1-1.3zm-1.2-2.9l.6 1.5a3.95 3.95 0 0 1 5.1 2.2l1.5-.6c-1.1-2.8-4.3-4.2-7.2-3.1z" fill="#fff"/></svg>